Coordinates
version=1
nRows=4
nColumns=107
inDegrees=yes

Units are S.I. units (second, meters, Newtons, ...)
If the header above contains a line with 'inDegrees', this indicates whether rotational values are in degrees (yes) or radians (no).

endheader
time	sternoclavicular_r2	sternoclavicular_r3	unrotscap_r3	unrotscap_r2	acromioclavicular_r2	acromioclavicular_r3	acromioclavicular_r1	unrothum_r1	unrothum_r3	unrothum_r2	elv_angle	shoulder_elv	shoulder1_r2	shoulder_rot	elbow_flexion	pro_sup	deviation	flexion	proximal_distal_r1	proximal_distal_r3	cmc_flexion	cmc_abduction	mp_flexion	ip_flexion	mcp2_flexion	mcp2_abduction	pm2_flexion	md2_flexion	mcp3_flexion	mcp3_abduction	pm3_flexion	md3_flexion	mcp4_flexion	mcp4_abduction	pm4_flexion	md4_flexion	mcp5_flexion	mcp5_abduction	pm5_flexion	md5_flexion	bicpt_tx	bicpt_ty	bicpt_tz	bicpt2_tx	bicpt2_ty	bicpt2_tz	ptpt_tx	ptpt_ty	ptpt_tz	FCUpt_tx	FCUpt_ty	FCUpt_tz	EDCpt_tx	EDCpt_ty	EDCpt_tz	APLpt_tx	APLpt_ty	APLpt_tz	FPLpt_tx	FPLpt_ty	FPLpt_tz	FPLpt2_tx	FPLpt2_ty	FPLpt2_tz	PEC1pt2_tx	PEC1pt2_ty	PEC1pt2_tz	PEC1pt3_tx	PEC1pt3_ty	PEC1pt3_tz	PEC2pt2_tx	PEC2pt2_ty	PEC2pt2_tz	PEC2pt3_tx	PEC2pt3_ty	PEC2pt3_tz	PEC3pt2_tx	PEC3pt2_ty	PEC3pt2_tz	PEC3pt3_tx	PEC3pt3_ty	PEC3pt3_tz	DELT2pt2a_tx	DELT2pt2a_ty	DELT2pt2a_tz	DELT2pt2_tx	DELT2pt2_ty	DELT2pt2_tz	LAT1pt2_tx	LAT1pt2_ty	LAT1pt2_tz	LAT1pt3_tx	LAT1pt3_ty	LAT1pt3_tz	LAT2pt2_tx	LAT2pt2_ty	LAT2pt2_tz	LAT2pt3_tx	LAT2pt3_ty	LAT2pt3_tz	LAT3pt2_tx	LAT3pt2_ty	LAT3pt2_tz	LAT3pt3_tx	LAT3pt3_ty	LAT3pt3_tz
      0.80000000	     -0.32667365	      0.13836354	     -0.13836354	      0.32667365	     -0.06614477	      0.53455875	      0.24028048	     -0.24028048	     -0.53455875	      0.06614477	     98.90469109	     77.34288958	     -1.72621251	    -20.06445816	     28.73743488	     42.34326948	      0.21754288	     -0.02998694	      0.25650116	     -0.01499347	     31.58731609	    -21.79206878	      0.28945767	      2.91835349	     -5.36174329	      9.62815616	     13.84021239	    -26.18969730	     -9.21407459	      6.47367518	      7.66722217	     11.27426285	    -10.50281222	     -4.75731071	     -0.67752748	     21.10438905	    -20.15151045	    -13.55632340	      3.60606208	      5.08572399	      0.00085055	     -0.03089375	     -0.00483054	      0.01657250	     -0.01800667	     -0.00721603	      0.00442131	     -0.06692306	     -0.00346098	      0.00801700	     -0.18344554	     -0.00040099	     -0.00508118	      0.00147641	      0.00012811	      0.00002993	      0.00001197	      0.00005986	      0.00003831	      0.00011492	      0.00006465	     -0.00001046	     -0.00023537	     -0.00028245	      0.00253513	      0.00889444	      0.00618744	     -0.00829288	      0.02002323	     -0.01899199	      0.00253513	      0.00889444	      0.00618744	      0.00055859	      0.01856231	     -0.00975381	      0.00399220	      0.00494609	      0.01607482	      0.00000000	      0.00800176	      0.00000000	     -0.00726164	     -0.03355825	     -0.00659903	      0.01381343	     -0.00043392	     -0.00332058	     -0.00090233	      0.01512484	     -0.00618744	      0.00249216	      0.02182790	     -0.01804669	     -0.00605853	      0.01310533	     -0.00554291	     -0.01263268	      0.02767159	     -0.03098015	     -0.02371851	      0.01465219	     -0.00743352	     -0.01572640	      0.03196842	     -0.03871445
      0.83333333	     -0.32749526	      0.13871154	     -0.13871154	      0.32749526	     -0.06631113	      0.53590322	      0.24088481	     -0.24088481	     -0.53590322	      0.06631113	     98.75753236	     77.53741483	     -1.72364410	    -19.06158248	     28.59373617	     40.90989123	      0.21381567	     -0.05222054	      0.25275818	     -0.02611027	     31.09665919	    -21.76817597	      1.10671662	      1.76206259	     -5.05130605	      9.54479346	     14.27822015	    -27.57393921	     -9.05694724	      6.31333171	      7.40368918	     12.01324471	    -10.75002952	     -4.92774214	     -0.39266274	     22.77795822	    -20.65630138	    -13.58696096	      4.26121542	      5.08901364	      0.00084579	     -0.03087728	     -0.00482788	      0.01657516	     -0.01796763	     -0.00737232	      0.00452722	     -0.06685458	     -0.00334551	      0.00787197	     -0.18347602	     -0.00039257	     -0.00490918	      0.00141738	      0.00013966	      0.00005115	      0.00002046	      0.00010229	      0.00006547	      0.00019641	      0.00011048	     -0.00000992	     -0.00024020	     -0.00028823	      0.00254151	      0.00891681	      0.00620300	     -0.00831374	      0.02007359	     -0.01903976	      0.00254151	      0.00891681	      0.00620300	      0.00055999	      0.01860900	     -0.00977834	      0.00399947	      0.00495852	      0.01609223	      0.00000000	      0.00804236	      0.00000000	     -0.00727991	     -0.03364265	     -0.00663273	      0.01322885	     -0.00040329	     -0.00297942	     -0.00090460	      0.01516289	     -0.00620300	      0.00249843	      0.02188280	     -0.01809208	     -0.00607377	      0.01313830	     -0.00555685	     -0.01266446	      0.02774119	     -0.03105807	     -0.02377816	      0.01468904	     -0.00745221	     -0.01576595	      0.03204883	     -0.03881182
      0.86666667	     -0.32548853	      0.13786158	     -0.13786158	      0.32548853	     -0.06590481	      0.53261946	      0.23940878	     -0.23940878	     -0.53261946	      0.06590481	     99.17004338	     77.06230268	     -1.73084378	    -21.37989939	     28.67399642	     42.83700191	      0.19843385	     -0.06740434	      0.23707391	     -0.03370217	     30.96115981	    -21.57719449	      1.24856660	      1.26385145	     -4.69724842	      9.61691951	     14.00304375	    -28.77137341	     -8.62650987	      6.45202340	      7.07343809	     11.19605373	    -10.41559196	     -4.76590146	     -1.10352933	     22.86362825	    -20.70758945	    -13.56768362	      4.53796325	      5.05966729	      0.00084845	     -0.03088648	     -0.00482937	      0.01657054	     -0.01798943	     -0.00716156	      0.00438483	     -0.06694665	     -0.00350075	      0.00806710	     -0.18343491	     -0.00040354	     -0.00514043	      0.00149689	      0.00012388	      0.00006516	      0.00002606	      0.00013032	      0.00008340	      0.00025021	      0.00014075	     -0.00000976	     -0.00024148	     -0.00028978	      0.00252593	      0.00886217	      0.00616499	     -0.00826280	      0.01995059	     -0.01892309	      0.00252593	      0.00886217	      0.00616499	      0.00055656	      0.01849497	     -0.00971842	      0.00398169	      0.00492814	      0.01604954	      0.00000000	      0.00794338	      0.00000000	     -0.00723530	     -0.03343651	     -0.00655059	      0.01455985	     -0.00047469	     -0.00379203	     -0.00089906	      0.01506997	     -0.00616499	      0.00248312	      0.02174871	     -0.01798122	     -0.00603655	      0.01305779	     -0.00552280	     -0.01258685	      0.02757120	     -0.03086776	     -0.02363246	      0.01459904	     -0.00740655	     -0.01566935	      0.03185245	     -0.03857400
      0.90000000	     -0.32692228	      0.13846885	     -0.13846885	      0.32692228	     -0.06619511	      0.53496561	      0.24046336	     -0.24046336	     -0.53496561	      0.06619511	     98.87733133	     77.40175649	     -1.72573499	    -19.66232460	     28.53765688	     40.91009010	      0.19934112	     -0.08365283	      0.23800979	     -0.04182642	     30.75321301	    -21.61706353	      1.63252602	      0.70081929	     -4.51864987	      9.50007724	     14.37531086	    -29.80747102	     -8.57186583	      6.29746740	      7.10369542	     11.81058726	    -10.62855335	     -4.96266316	     -0.86407074	     23.70065514	    -20.90469765	    -13.59261733	      4.77794378	      5.05805180	      0.00084394	     -0.03087085	     -0.00482685	      0.01657516	     -0.01795239	     -0.00737230	      0.00452721	     -0.06685459	     -0.00334553	      0.00787199	     -0.18347601	     -0.00039257	     -0.00490920	      0.00141739	      0.00013966	      0.00007973	      0.00003189	      0.00015946	      0.00010206	      0.00030617	      0.00017222	     -0.00000951	     -0.00024341	     -0.00029209	      0.00253706	      0.00890121	      0.00619215	     -0.00829920	      0.02003847	     -0.01900645	      0.00253706	      0.00890121	      0.00619215	      0.00055901	      0.01857644	     -0.00976123	      0.00399440	      0.00494985	      0.01608010	      0.00000000	      0.00801403	      0.00000000	     -0.00726717	     -0.03358379	     -0.00660922	      0.01358064	     -0.00042159	     -0.00318186	     -0.00090302	      0.01513636	     -0.00619215	      0.00249406	      0.02184451	     -0.01806043	     -0.00606314	      0.01311531	     -0.00554713	     -0.01264230	      0.02769265	     -0.03100373	     -0.02373656	      0.01466335	     -0.00743918	     -0.01573837	      0.03199275	     -0.03874391
